<svg width="20" height="21" viewBox="0 0 20 21" fill="none" xmlns="http://www.w3.org/2000/svg">
<path d="M9 13.3232H11V15.3232H9V13.3232ZM9 5.32324H11V11.3232H9V5.32324ZM9.99 0.323242C4.47 0.323242 0 4.80324 0 10.3232C0 15.8432 4.47 20.3232 9.99 20.3232C15.52 20.3232 20 15.8432 20 10.3232C20 4.80324 15.52 0.323242 9.99 0.323242ZM10 18.3232C5.58 18.3232 2 14.7432 2 10.3232C2 5.90324 5.58 2.32324 10 2.32324C14.42 2.32324 18 5.90324 18 10.3232C18 14.7432 14.42 18.3232 10 18.3232Z" fill="white"/>
</svg>
