<svg width="24" height="25" viewBox="0 0 24 25" fill="none" xmlns="http://www.w3.org/2000/svg">
<path d="M12 23.5956C11.31 23.5956 10.66 23.2456 10.2 22.6356L8.7 20.6356C8.67 20.5956 8.55 20.5456 8.5 20.5356H8C3.83 20.5356 1.25 19.4056 1.25 13.7856V8.78564C1.25 4.36564 3.58 2.03564 8 2.03564H16C20.42 2.03564 22.75 4.36564 22.75 8.78564V13.7856C22.75 18.2056 20.42 20.5356 16 20.5356H15.5C15.42 20.5356 15.35 20.5756 15.3 20.6356L13.8 22.6356C13.34 23.2456 12.69 23.5956 12 23.5956ZM8 3.53564C4.42 3.53564 2.75 5.20564 2.75 8.78564V13.7856C2.75 18.3056 4.3 19.0356 8 19.0356H8.5C9.01 19.0356 9.59 19.3256 9.9 19.7356L11.4 21.7356C11.75 22.1956 12.25 22.1956 12.6 21.7356L14.1 19.7356C14.43 19.2956 14.95 19.0356 15.5 19.0356H16C19.58 19.0356 21.25 17.3656 21.25 13.7856V8.78564C21.25 5.20564 19.58 3.53564 16 3.53564H8Z" fill="white"/>
<path d="M17 9.53564H7C6.59 9.53564 6.25 9.19564 6.25 8.78564C6.25 8.37564 6.59 8.03564 7 8.03564H17C17.41 8.03564 17.75 8.37564 17.75 8.78564C17.75 9.19564 17.41 9.53564 17 9.53564Z" fill="white"/>
<path d="M13 14.5356H7C6.59 14.5356 6.25 14.1956 6.25 13.7856C6.25 13.3756 6.59 13.0356 7 13.0356H13C13.41 13.0356 13.75 13.3756 13.75 13.7856C13.75 14.1956 13.41 14.5356 13 14.5356Z" fill="white"/>
</svg>
